<?xml version="1.0" encoding="UTF-8" standalone="no"?>
<svg
   xmlns:dc="http://purl.org/dc/elements/1.1/"
   xmlns:cc="http://creativecommons.org/ns#"
   xmlns:rdf="http://www.w3.org/1999/02/22-rdf-syntax-ns#"
   xmlns:svg="http://www.w3.org/2000/svg"
   xmlns="http://www.w3.org/2000/svg"
   xmlns:sodipodi="http://sodipodi.sourceforge.net/DTD/sodipodi-0.dtd"
   xmlns:inkscape="http://www.inkscape.org/namespaces/inkscape"
   viewBox="0 0 48 48"
   class="svg gitea-git"
   width="16"
   height="16"
   aria-hidden="true"
   version="1.1"
   id="svg4"
   sodipodi:docname="gitea-git.svg"
   inkscape:version="0.92.4 (5da689c313, 2019-01-14)">
  <metadata
     id="metadata10">
    <rdf:RDF>
      <cc:Work
         rdf:about="">
        <dc:format>image/svg+xml</dc:format>
        <dc:type
           rdf:resource="http://purl.org/dc/dcmitype/StillImage" />
      </cc:Work>
    </rdf:RDF>
  </metadata>
  <defs
     id="defs8" />
  <sodipodi:namedview
     pagecolor="#ffffff"
     bordercolor="#666666"
     borderopacity="1"
     objecttolerance="10"
     gridtolerance="10"
     guidetolerance="10"
     inkscape:pageopacity="0"
     inkscape:pageshadow="2"
     inkscape:window-width="730"
     inkscape:window-height="480"
     id="namedview6"
     showgrid="false"
     inkscape:zoom="14.75"
     inkscape:cx="8"
     inkscape:cy="8"
     inkscape:window-x="0"
     inkscape:window-y="0"
     inkscape:window-maximized="0"
     inkscape:current-layer="svg4" />
  <path
     fill="#F4511E"
     d="M42.2 22.1L25.9 5.8c-.5-.5-1.2-.8-1.9-.8s-1.4.3-1.9.8l-3.5 3.5 4.1 4.1c.4-.2.8-.3 1.3-.3 1.7 0 3 1.3 3 3 0 .5-.1.9-.3 1.3l4 4c.4-.2.8-.3 1.3-.3 1.7 0 3 1.3 3 3s-1.3 3-3 3-3-1.3-3-3c0-.5.1-.9.3-1.3l-4-4c-.1 0-.2.1-.3.1v10.4c1.2.4 2 1.5 2 2.8 0 1.7-1.3 3-3 3s-3-1.3-3-3c0-1.3.8-2.4 2-2.8V18.8c-1.2-.4-2-1.5-2-2.8 0-.5.1-.9.3-1.3l-4.1-4.1L5.8 22.1c-.5.5-.8 1.2-.8 1.9s.3 1.4.8 1.9l16.3 16.3c.5.5 1.2.8 1.9.8s1.4-.3 1.9-.8l16.3-16.3c.5-.5.8-1.2.8-1.9s-.3-1.4-.8-1.9z"
     id="path2"
     style="fill:#0cbe41;fill-opacity:1" />
</svg>
