<?xml version="1.0" encoding="UTF-8" standalone="no"?>
<!-- Created with Inkscape (http://www.inkscape.org/) -->

<svg
   xmlns:dc="http://purl.org/dc/elements/1.1/"
   xmlns:cc="http://creativecommons.org/ns#"
   xmlns:rdf="http://www.w3.org/1999/02/22-rdf-syntax-ns#"
   xmlns:svg="http://www.w3.org/2000/svg"
   xmlns="http://www.w3.org/2000/svg"
   xmlns:xlink="http://www.w3.org/1999/xlink"
   xmlns:sodipodi="http://sodipodi.sourceforge.net/DTD/sodipodi-0.dtd"
   xmlns:inkscape="http://www.inkscape.org/namespaces/inkscape"
   width="512"
   height="512"
   viewBox="0 0 135.46667 135.46667"
   version="1.1"
   id="svg8"
   sodipodi:docname="gitealogo.svg"
   inkscape:version="0.92.4 (5da689c313, 2019-01-14)"
   inkscape:export-filename=""
   inkscape:export-xdpi="48.000004"
   inkscape:export-ydpi="48.000004">
  <defs
     id="defs2">
    <linearGradient
       inkscape:collect="always"
       id="linearGradient4673">
      <stop
         style="stop-color:#ffffff;stop-opacity:1;"
         offset="0"
         id="stop4669" />
      <stop
         style="stop-color:#ffffff;stop-opacity:0;"
         offset="1"
         id="stop4671" />
    </linearGradient>
    <linearGradient
       id="linearGradient4650-9"
       inkscape:collect="always">
      <stop
         id="stop4654"
         offset="0"
         style="stop-color:#8073e3;stop-opacity:1" />
      <stop
         id="stop4656"
         offset="1"
         style="stop-color:#1c69e7;stop-opacity:0.98543692" />
    </linearGradient>
    <linearGradient
       inkscape:collect="always"
       xlink:href="#linearGradient4650-9"
       id="linearGradient4652"
       x1="113.18864"
       y1="251.35037"
       x2="11.412409"
       y2="201.39769"
       gradientUnits="userSpaceOnUse" />
    <linearGradient
       inkscape:collect="always"
       xlink:href="#linearGradient4673"
       id="linearGradient4679"
       x1="75.965698"
       y1="78.260544"
       x2="88.372765"
       y2="78.260544"
       gradientUnits="userSpaceOnUse" />
  </defs>
  <sodipodi:namedview
     id="base"
     pagecolor="#ffffff"
     bordercolor="#666666"
     borderopacity="1.0"
     inkscape:pageopacity="0"
     inkscape:pageshadow="2"
     inkscape:zoom="1.4142136"
     inkscape:cx="160.70158"
     inkscape:cy="306.48284"
     inkscape:document-units="mm"
     inkscape:current-layer="layer1"
     showgrid="false"
     units="px"
     width="256px"
     showguides="false"
     inkscape:window-width="1920"
     inkscape:window-height="1051"
     inkscape:window-x="-9"
     inkscape:window-y="-9"
     inkscape:window-maximized="1"
     inkscape:pagecheckerboard="false"
     inkscape:measure-start="283.373,243.952"
     inkscape:measure-end="290.267,236.527">
    <sodipodi:guide
       position="0,0"
       orientation="0,512"
       id="guide3699"
       inkscape:locked="false" />
    <sodipodi:guide
       position="135.46667,0"
       orientation="-512,0"
       id="guide3701"
       inkscape:locked="false" />
    <sodipodi:guide
       position="135.46667,135.46667"
       orientation="0,-512"
       id="guide3703"
       inkscape:locked="false" />
    <sodipodi:guide
       position="0,135.46667"
       orientation="512,0"
       id="guide3705"
       inkscape:locked="false" />
  </sodipodi:namedview>
  <metadata
     id="metadata5">
    <rdf:RDF>
      <cc:Work
         rdf:about="">
        <dc:format>image/svg+xml</dc:format>
        <dc:type
           rdf:resource="http://purl.org/dc/dcmitype/StillImage" />
        <dc:title />
      </cc:Work>
    </rdf:RDF>
  </metadata>
  <g
     inkscape:label="Layer 1"
     inkscape:groupmode="layer"
     id="layer1"
     transform="translate(0,-161.53334)"
     style="display:inline">
    <path
       style="fill:url(#linearGradient4652);fill-opacity:1;stroke:#7a72e3;stroke-width:1;stroke-linecap:butt;stroke-linejoin:miter;stroke-opacity:1;stroke-miterlimit:4;stroke-dasharray:none;fill-rule:nonzero"
       d="m 27.709937,195.15095 c -9.546573,-0.0272 -22.3392732,6.79805 -21.6317552,23.90397 1.105534,26.72889 25.4565952,29.20839 35.1916502,29.42301 1.068023,5.01357 12.521798,22.30563 21.001818,23.21667 h 37.15277 c 22.27763,-1.66785 38.9607,-75.75671 26.59321,-76.03825 -46.781583,2.47691 -49.995146,2.13838 -88.599758,0 -2.495053,-0.0266 -5.972321,-0.49474 -9.707935,-0.5054 z m 2.491319,9.45886 c 1.351378,13.69267 3.555849,21.70359 8.018216,33.94345 -11.382872,-1.50473 -21.069822,-5.22443 -22.851515,-19.10984 -0.950962,-7.4112 2.390428,-15.16769 14.833299,-14.83361 z"
       id="path3722"
       inkscape:connector-curvature="0"
       sodipodi:nodetypes="sscccccsccsc" />
    <g
       inkscape:label="Layer 1"
       id="layer1-7"
       transform="matrix(0.1260323,0,0,0.12474029,101.2881,194.13875)"
       style="fill:#ffffff;fill-opacity:1">
      <g
         id="g859"
         style="fill:#ffffff;fill-opacity:1">
        <g
           id="g904"
           style="fill:#ffffff;fill-opacity:1">
          <g
             style="fill:#ffffff;fill-opacity:1;stroke-width:0.667018"
             transform="matrix(1.4992086,0,0,1.4992086,-53.36249,-64.9712)"
             id="g870">
            <path
               id="path847"
               style="opacity:0.97526999;fill:#ffffff;fill-opacity:1;stroke:none;stroke-width:0.17648099px;stroke-linecap:butt;stroke-linejoin:miter;stroke-opacity:1"
               d="m 51.007631,119.06031 c -2.984146,0.27504 -0.202066,-3.27899 0.898813,-4.23206 3.049186,-3.86671 4.460697,-8.78126 6.819118,-13.08994 3.098439,-6.901864 7.826395,-13.054438 13.118234,-18.408585 6.513517,-4.223846 14.255833,-5.871397 21.645647,-7.882752 7.611017,-1.040207 15.266487,-1.574578 22.888207,-2.408026 9.08053,-1.368221 17.05208,-6.374366 25.62189,-9.204676 0.54872,1.907917 -2.69492,4.065178 -3.87583,5.914687 -3.68173,5.6281 -6.44177,11.923193 -11.33348,16.673387 -3.49216,3.674439 -6.19827,8.257285 -10.86735,10.571579 -3.66335,2.26777 -7.04462,5.154716 -11.43068,5.836136 -7.852027,2.18286 -15.556878,5.01578 -23.735412,5.71447 -9.207099,1.85053 -19.286031,2.50736 -26.94591,8.52173 -1.047223,0.53743 -1.974662,1.15388 -2.803247,1.99405 z"
               inkscape:connector-curvature="0" />
            <path
               id="path849"
               style="fill:#ffffff;fill-opacity:1;stroke:none;stroke-width:0.17648099px;stroke-linecap:butt;stroke-linejoin:miter;stroke-opacity:1"
               d="m 39.870342,194.11396 c -3.020146,-2.85124 -0.778325,-11.11754 -1.416963,-15.96365 1.065034,-14.93398 2.631497,-30.30893 8.855793,-44.09737 2.834469,-6.97169 8.898616,-11.70889 15.615709,-14.64594 6.450405,-3.98111 13.837715,-5.80617 21.290022,-6.70818 4.70572,-0.58728 -2.317475,5.4021 -0.631796,8.61926 -1.094469,7.38874 -4.527242,14.27995 -5.054171,21.75942 3.591655,-4.7633 6.767133,-11.1641 13.434409,-11.81218 4.270647,-2.13352 9.617205,-1.38713 11.547785,-2.0852 2.00244,-2.9173 9.2848,-6.31933 4.70525,-1.09604 -4.75593,7.1051 -8.691512,14.95185 -15.068645,20.77137 -2.546676,2.50407 -6.469284,4.74573 -9.436068,1.25184 -4.491519,-5.99086 -8.409176,-0.47295 -10.247288,4.19066 -7.004367,9.41 -13.8327,18.98299 -20.978672,28.26775 -4.419518,3.63132 -8.696638,7.37198 -12.615365,11.54826 z"
               inkscape:connector-curvature="0" />
            <path
               id="path851"
               style="fill:#ffffff;fill-opacity:1;stroke:none;stroke-width:0.17648099px;stroke-linecap:butt;stroke-linejoin:miter;stroke-opacity:1"
               d="m 126.85918,106.42098 c 4.46157,-4.23539 8.7421,-10.855023 15.52066,-10.891495 5.2078,-0.380016 10.50725,-0.357997 15.67197,-0.959232 4.66862,-1.45852 9.52528,-2.44326 13.79777,-4.924907 2.59827,1.117451 -1.55547,3.544666 -2.12567,5.27674 -4.59438,5.832514 -9.2686,11.599134 -14.78163,16.600974 -3.94601,2.43887 -8.00138,5.05289 -12.63749,5.9877 -7.07335,1.60427 -15.27917,-0.56835 -21.30917,4.59979 -1.85174,1.6775 -6.86474,7.85447 -5.07704,1.61487 2.72381,-6.29426 7.21593,-11.60283 10.9406,-17.30444 z"
               inkscape:connector-curvature="0" />
            <path
               id="path853"
               style="fill:#ffffff;fill-opacity:1;stroke:none;stroke-width:0.17648099px;stroke-linecap:butt;stroke-linejoin:miter;stroke-opacity:1"
               d="m 108.00092,172.46513 c -0.27503,-8.57413 1.87493,-16.99942 4.25739,-25.17058 2.71417,-6.63095 4.66761,-14.46228 11.04255,-18.56834 1.5147,-1.04235 8.386,-2.53738 2.84793,-1.12775 2.74691,-0.72075 11.08507,-4.19268 8.29491,1.50487 -0.4169,2.9751 -1.88053,5.55782 -3.2737,8.16694 4.06558,-1.04 8.10168,-2.35443 12.34772,-1.71502 3.13793,-0.45981 4.38921,0.93505 1.43142,2.50254 2.32501,0.54338 5.73918,-5.19123 6.76253,-1.84313 -1.9642,3.70773 -5.18596,6.60873 -7.89257,9.76125 -2.89046,2.09489 -5.64205,4.47977 -9.319,4.93213 -1.44034,0.60717 -5.80772,1.89991 -4.2568,-1.06039 2.14162,-2.94965 -0.77214,-3.18681 -1.78835,-0.36311 -4.35251,5.49182 -7.94391,11.57939 -13.03934,16.44768 -1.8695,2.06292 -3.37511,4.7391 -5.46939,6.42319 -0.63933,0.1767 -1.29176,0.10522 -1.9453,0.10972 z"
               inkscape:connector-curvature="0" />
          </g>
        </g>
      </g>
    </g>
  </g>
  <g
     inkscape:groupmode="layer"
     id="layer2"
     inkscape:label="Layer 2"
     style="display:inline">
    <rect
       style="display:inline;fill:#ffffff;fill-opacity:1;stroke:none;stroke-width:0.24757317;stroke-opacity:1"
       id="rect4599"
       width="34.762054"
       height="34.762054"
       x="87.508659"
       y="18.291576"
       transform="rotate(25.914715)"
       ry="5.4825778" />
    <path
       style="display:inline;fill:#ffffff;fill-opacity:1;stroke:none;stroke-width:0.26644793px;stroke-linecap:butt;stroke-linejoin:miter;stroke-opacity:1"
       d="m 79.804947,57.359056 3.241146,1.609954 V 35.255731 h -3.262698 z"
       id="path4525"
       inkscape:connector-curvature="0"
       sodipodi:nodetypes="ccccc" />
  </g>
  <g
     inkscape:groupmode="layer"
     id="layer3"
     class="detail-remove"
     inkscape:label="Layer 3"
     style="display:inline">
    <path
       style="fill:url(#linearGradient4679);stroke:#626fe4;stroke-width:2.68000007;stroke-linecap:butt;stroke-linejoin:miter;stroke-miterlimit:4;stroke-dasharray:none;stroke-opacity:1;fill-opacity:1"
       d="m 76.558096,68.116343 c 12.97589,6.395378 13.012989,4.101862 4.890858,20.907244"
       id="path4514"
       inkscape:connector-curvature="0"
       sodipodi:nodetypes="cc" />
    <circle
       style="fill:#6370e4;fill-opacity:1;stroke:none;stroke-width:0.26458332;stroke-opacity:1"
       id="path4606"
       cx="49.064713"
       cy="90.077766"
       r="3.4745038"
       transform="rotate(-19.796137)" />
    <circle
       style="fill:#6370e4;fill-opacity:1;stroke:none;stroke-width:0.26458332;stroke-opacity:1"
       id="path4606-3"
       cx="36.810425"
       cy="102.1049"
       r="3.4745038"
       transform="rotate(-19.796137)" />
    <circle
       style="fill:#626fe4;fill-opacity:1;stroke:none;stroke-width:0.26458332;stroke-opacity:1"
       id="path4606-1"
       cx="46.484283"
       cy="111.43928"
       r="3.4745038"
       transform="rotate(-19.796137)" />
    <rect
       style="fill:#6370e4;fill-opacity:0.99607843;stroke:none;stroke-width:0.27444693;stroke-opacity:1"
       id="rect4629-8"
       width="2.6726954"
       height="27.261492"
       x="97.333458"
       y="18.061695"
       transform="rotate(26.024158)" />
  </g>
</svg>
