<?xml version="1.0" standalone="no"?>
<!DOCTYPE svg PUBLIC "-//W3C//DTD SVG 20010904//EN"
 "http://www.w3.org/TR/2001/REC-SVG-20010904/DTD/svg10.dtd">
<svg version="1.0" xmlns="http://www.w3.org/2000/svg"
 width="237.000000pt" height="237.000000pt" viewBox="0 0 237.000000 237.000000"
 preserveAspectRatio="xMidYMid meet">
<metadata>
Created by potrace 1.11, written by Peter Selinger 2001-2013
</metadata>
<g transform="translate(0.000000,237.000000) scale(0.100000,-0.100000)"
fill="#000000" stroke="none">
<path d="M313 1905 c-208 -56 -325 -232 -309 -465 22 -322 225 -508 596 -545
l66 -7 34 -66 c74 -144 219 -305 313 -351 44 -21 52 -22 429 -19 423 3 401 0
492 71 160 127 339 533 412 937 21 118 24 330 6 383 -25 70 -21 69 -363 52
-167 -8 -352 -15 -411 -15 l-108 0 0 -225 0 -226 -30 16 -30 16 0 178 c0 98
-3 193 -6 210 l-6 31 -127 0 c-69 0 -286 9 -481 20 -414 23 -409 23 -477 5z
m1847 -99 c-43 -63 -77 -84 -172 -105 -46 -10 -93 -23 -105 -29 -19 -11 -18
-7 8 42 16 29 37 59 46 68 24 21 78 38 122 39 20 0 52 6 71 13 58 22 63 18 30
-28z m120 -76 c-29 -40 -59 -60 -106 -67 -22 -3 -47 -10 -56 -15 -29 -14 -21
6 20 53 38 42 52 48 150 58 9 1 6 -9 -8 -29z m-1820 -21 c0 -6 7 -59 16 -118
18 -124 51 -260 94 -385 16 -50 30 -94 30 -98 0 -19 -142 18 -221 58 -25 13
-67 46 -92 74 -62 69 -89 143 -91 245 -1 68 3 87 24 124 29 51 59 76 116 96
48 17 124 19 124 4z m1527 -46 c-3 -10 -8 -31 -12 -48 -6 -28 -5 -29 12 -14
10 8 35 20 55 26 l38 11 -30 -43 c-30 -44 -55 -61 -65 -45 -11 18 -22 11 -49
-30 -34 -51 -95 -120 -107 -120 -20 0 0 160 27 212 25 49 142 94 131 51z m178
-43 c-6 -18 -2 -20 31 -20 l37 0 -23 -25 c-13 -14 -33 -25 -44 -25 -11 0 -37
-19 -59 -42 l-38 -43 6 43 c7 55 39 119 62 125 32 8 34 7 28 -13z m-817 -165
l52 -24 -27 -56 c-15 -30 -33 -55 -40 -55 -7 0 -22 -9 -34 -21 -16 -16 -19
-28 -14 -58 5 -32 0 -52 -36 -122 -28 -57 -52 -91 -73 -104 -39 -25 -46 -65
-17 -94 54 -54 142 15 102 78 -7 10 4 42 35 102 40 80 47 89 78 94 36 7 59 -1
114 -42 40 -30 38 -45 -13 -158 -26 -56 -39 -74 -59 -79 -52 -13 -59 -81 -11
-112 51 -33 107 16 91 80 -4 15 7 52 30 107 46 105 48 148 11 187 -15 16 -50
39 -77 52 -63 29 -71 58 -38 130 l23 51 151 -74 c160 -79 194 -107 194 -161 0
-19 -42 -116 -109 -253 -115 -234 -133 -258 -195 -256 -33 1 -448 202 -479
232 -10 9 -20 33 -23 52 -5 29 11 68 101 254 108 223 125 251 160 266 32 13
47 10 103 -16z"/>
</g>
</svg>
